<?xml version="1.0" standalone="no"?>
<!DOCTYPE svg PUBLIC "-//W3C//DTD SVG 20010904//EN"
 "http://www.w3.org/TR/2001/REC-SVG-20010904/DTD/svg10.dtd">
<svg version="1.0" xmlns="http://www.w3.org/2000/svg"
 width="300pt" height="300pt" viewBox="0 0 300 300"
 preserveAspectRatio="xMidYMid meet">
<g transform="translate(0.000000,300.000000) scale(0.100000,-0.100000)"
fill="#000000" stroke="none">
<path d="M476 2493 c-4 -32 -2 -80 3 -108 9 -47 8 -53 -20 -97 -54 -83 -73
-152 -73 -263 -1 -85 2 -106 21 -141 115 -215 466 -181 592 56 41 76 35 91 -7
18 -54 -96 -118 -147 -217 -173 -155 -40 -296 9 -325 113 -22 82 0 245 46 333
l15 30 32 -43 c51 -67 124 -101 227 -106 47 -2 103 1 125 7 61 16 131 65 162
113 23 36 28 54 28 109 0 57 -4 71 -29 103 -46 60 -102 81 -221 81 -88 0 -107
-3 -158 -27 -31 -15 -82 -50 -112 -78 -54 -52 -54 -52 -60 -27 -4 14 -5 55 -3
91 4 85 -17 91 -26 9z m498 -27 c71 -41 96 -126 60 -202 -24 -50 -96 -110
-149 -123 -137 -35 -271 11 -335 115 l-22 34 20 28 c30 41 114 117 153 138 98
51 197 55 273 10z"/>
<path d="M1190 2214 c-6 -14 -10 -31 -10 -39 0 -39 -73 -210 -121 -282 -11
-18 -16 -33 -11 -33 15 0 78 105 105 172 19 50 25 58 48 58 50 0 53 -22 14
-95 -19 -37 -35 -80 -35 -96 0 -72 46 -90 102 -40 35 31 106 151 89 151 -5 0
-24 -27 -42 -61 -33 -61 -74 -103 -90 -93 -18 11 -8 51 36 144 25 52 45 100
45 107 0 9 -18 11 -67 6 l-68 -6 28 26 c29 28 36 74 15 95 -18 18 -27 15 -38
-14z"/>
<path d="M1575 2131 c-99 -45 -177 -211 -129 -279 23 -34 60 -28 103 16 20 20
41 46 48 57 10 17 11 15 6 -16 -12 -84 51 -108 107 -41 40 47 93 142 81 142
-5 0 -23 -24 -40 -53 -34 -59 -74 -107 -91 -107 -22 0 -9 69 27 140 21 41 39
78 41 83 7 14 -47 7 -63 -9 -8 -9 -25 -35 -37 -58 -55 -108 -122 -172 -148
-140 -40 47 109 264 182 264 9 0 24 -7 33 -16 9 -9 19 -13 23 -9 13 12 -39 45
-72 45 -17 0 -49 -9 -71 -19z"/>
<path d="M1980 2132 c-26 -12 -46 -37 -77 -92 -44 -77 -49 -90 -35 -90 5 0 19
22 31 49 32 68 67 103 98 99 14 -2 31 -11 37 -21 16 -26 -21 -85 -70 -111 -21
-12 -41 -22 -43 -23 -2 -2 -1 -6 2 -10 4 -3 19 -1 34 6 40 18 58 -4 49 -62 -4
-25 -12 -49 -19 -54 -7 -5 -58 -23 -113 -41 -150 -48 -213 -96 -214 -164 0
-31 41 -68 76 -68 13 0 49 10 81 22 73 27 180 130 209 200 11 28 27 49 39 53
39 10 101 85 133 158 19 45 -1 30 -28 -20 -25 -47 -92 -123 -109 -123 -5 0 -6
20 -3 45 5 50 -8 75 -40 75 -16 0 -13 6 16 33 56 54 70 103 36 137 -25 25 -45
25 -90 2z m-36 -408 c-96 -145 -280 -210 -250 -89 14 54 57 85 171 125 61 21
111 34 113 29 2 -5 -13 -34 -34 -65z"/>
<path d="M2362 2128 c-18 -24 -73 -140 -68 -145 3 -3 -2 -19 -10 -35 -33 -64
-13 -118 43 -118 31 0 94 59 124 115 40 75 39 51 -2 -53 l-39 -97 -93 -24
c-116 -30 -182 -63 -207 -104 -21 -33 -25 -73 -12 -95 26 -41 140 -29 207 23
36 27 118 129 137 171 6 12 27 27 48 34 56 18 105 63 145 131 35 60 42 79 28
79 -5 0 -17 -19 -28 -43 -27 -56 -80 -114 -127 -138 -21 -11 -38 -18 -38 -15
0 2 18 57 41 121 45 131 72 191 91 198 7 3 -4 6 -25 6 -31 1 -40 -4 -53 -26
-64 -118 -114 -198 -142 -228 -34 -37 -64 -43 -70 -13 -4 23 51 153 92 216
l35 52 -33 0 c-19 0 -38 -6 -44 -12z m-6 -412 c-93 -114 -180 -171 -225 -147
-30 17 -26 54 10 96 26 29 50 41 138 69 58 18 108 32 110 30 2 -2 -13 -24 -33
-48z"/>
<path d="M1225 1718 c-27 -4 -92 -28 -143 -53 -201 -100 -338 -310 -292 -449
37 -113 149 -157 258 -102 118 60 200 218 142 276 -21 21 -94 28 -105 10 -4
-6 10 -10 35 -10 34 0 42 -4 50 -26 29 -74 -78 -233 -167 -250 -116 -22 -191
67 -164 194 26 118 114 237 231 315 141 93 309 103 341 19 23 -59 -16 -181
-106 -338 -72 -125 -115 -230 -115 -284 0 -58 42 -100 100 -100 92 0 186 82
259 225 46 91 37 53 -29 -128 l-61 -164 -107 -7 c-241 -15 -400 -81 -390 -161
6 -50 47 -70 146 -70 80 0 93 3 162 37 81 40 153 94 191 144 23 31 26 32 124
36 108 5 153 21 181 63 10 15 13 32 9 47 -7 21 -8 20 -19 -12 -8 -24 -22 -40
-46 -52 -39 -19 -216 -38 -209 -22 3 5 17 36 32 69 68 146 150 446 129 467
-20 20 -39 0 -61 -64 -34 -94 -117 -248 -163 -301 -41 -48 -102 -87 -136 -87
-28 0 -52 32 -52 69 0 45 50 169 116 285 78 139 97 189 98 266 1 71 -14 105
-61 135 -33 22 -115 33 -178 23z m376 -515 c-9 -16 -10 -16 -11 4 0 12 3 30 7
40 7 16 8 16 11 -4 2 -12 -1 -30 -7 -40z m-161 -381 c0 -20 -123 -125 -173
-147 -66 -31 -158 -49 -200 -40 -152 33 11 158 240 184 97 12 133 12 133 3z"/>
<path d="M2273 1481 c-16 -16 -46 -61 -67 -100 -33 -63 -40 -71 -67 -71 -16 0
-29 -4 -29 -10 0 -5 12 -10 26 -10 21 0 25 -3 19 -17 -74 -181 -81 -280 -22
-302 49 -18 105 26 153 121 28 55 25 80 -3 28 -54 -98 -109 -148 -135 -122 -9
9 -9 28 -1 75 8 50 18 70 48 102 20 22 49 57 62 78 20 28 32 37 54 37 16 0 29
5 29 10 0 6 -11 10 -24 10 l-23 0 28 60 c31 64 37 108 17 128 -19 19 -34 15
-65 -17z m41 -80 c-24 -64 -43 -91 -65 -91 -11 0 -19 2 -19 5 0 12 63 131 79
149 15 17 16 17 19 1 2 -9 -4 -38 -14 -64z m-95 -171 c-23 -33 -44 -59 -45
-57 -2 2 6 29 19 60 18 46 26 57 45 57 22 0 21 -3 -19 -60z"/>
<path d="M2475 1364 c-24 -25 -15 -49 19 -49 36 0 56 26 37 49 -17 20 -35 20
-56 0z"/>
<path d="M1905 1274 c-69 -36 -128 -120 -141 -203 -16 -102 99 -147 176 -69
33 33 96 148 81 148 -5 0 -25 -28 -43 -62 -50 -91 -115 -130 -152 -92 -32 31
-12 114 26 114 85 1 189 138 129 170 -26 14 -41 13 -76 -6z m73 -25 c7 -37
-90 -128 -136 -129 -18 0 12 50 65 107 40 44 65 51 71 22z"/>
<path d="M2433 1256 c3 -8 -10 -54 -30 -103 -53 -132 -47 -183 22 -183 23 0
41 9 62 30 33 33 89 137 80 146 -3 3 -15 -11 -25 -33 -39 -75 -81 -123 -107
-123 -37 0 -33 33 20 157 25 58 45 109 45 114 0 5 -16 9 -36 9 -27 0 -35 -4
-31 -14z"/>
</g>
</svg>
