<svg xmlns="http://www.w3.org/2000/svg" viewBox="0 0 1000 222">
  <path d="M 743.04 133.921 L 786.24 56.881 L 761.28 83.521 Q 747.54 98.119 738.025 107.917 A 1092.404 1092.404 0 0 1 735.84 110.161 Q 726.137 120.095 721.326 124.914 A 578.078 578.078 0 0 1 720.96 125.281 Q 712.32 133.921 703.92 141.361 A 105.302 105.302 0 0 1 695.029 148.453 A 81.319 81.319 0 0 1 687.24 153.361 A 36.923 36.923 0 0 1 677.281 157.168 A 32.572 32.572 0 0 1 670.32 157.921 Q 656.64 157.921 656.64 141.841 Q 656.64 122.641 672.96 102.241 L 684.96 87.841 Q 690.96 80.641 696.96 73.201 A 619.916 619.916 0 0 0 708.102 58.768 
    Q 719.25 43.846 725.52 33.121 Q 728.88 27.121 730.68 22.561 Q 732.093 18.98 732.397 15.992 A 15.744 15.744 0 0 0 732.48 14.401 A 9.566 9.566 0 0 0 731.891 10.962 Q 730.973 8.558 728.621 7.022 A 11.067 11.067 0 0 0 727.92 6.601 Q 724.066 4.471 716.269 4.141 A 70.831 70.831 0 0 0 713.28 4.081 A 60.208 60.208 0 0 0 696.705 6.717 Q 680.711 11.341 659.587 24.071 A 342.771 342.771 0 0 0 642.96 34.801 A 106.767 106.767 0 0 0 626.592 48.17 A 122.384 122.384 0 0 0 623.04 51.841 A 101.859 101.859 0 0 0 611.872 66.154 A 88.247 88.247 0 0 0 607.92 72.961 
    Q 602.16 84.001 602.16 94.321 A 27.533 27.533 0 0 0 602.713 100.038 Q 604.036 106.261 608.52 109.561 A 23.685 23.685 0 0 0 618.552 113.76 A 32.353 32.353 0 0 0 624.24 114.241 A 34.089 34.089 0 0 0 635.037 112.361 Q 642.758 109.786 651.36 103.681 Q 668.778 91.989 671.014 91.209 A 1.977 1.977 0 0 1 671.04 91.201 A 17.567 17.567 0 0 1 668.263 96.768 Q 664.871 101.512 657.865 106.686 A 102.773 102.773 0 0 1 652.08 110.641 A 90.527 90.527 0 0 1 639.28 117.291 Q 631.974 120.329 625.093 121.374 A 47.23 47.23 0 0 1 618 121.921 A 28.641 28.641 0 0 1 610.129 120.9 A 20.545 20.545 0 0 1 599.04 113.281 
    A 32.413 32.413 0 0 1 592.579 94.372 A 40.142 40.142 0 0 1 592.56 93.121 A 52.184 52.184 0 0 1 599.848 67.401 Q 609.418 50.369 631.555 32.958 A 234.732 234.732 0 0 1 640.32 26.401 Q 649.62 19.658 662.636 13.817 A 175.488 175.488 0 0 1 663.48 13.441 Q 677.04 7.441 691.2 3.721 Q 703.865 0.393 714.227 0.042 A 71.244 71.244 0 0 1 716.64 0.001 
    A 46.073 46.073 0 0 1 725.329 0.782 A 33.814 33.814 0 0 1 734.88 4.081 A 14.665 14.665 0 0 1 739.781 8.132 Q 741.952 10.993 742.427 14.968 A 19.49 19.49 0 0 1 742.56 17.281 
    Q 742.56 25.689 734.347 40.361 A 177.512 177.512 0 0 1 728.4 50.161 A 229.398 229.398 0 0 1 723.75 57.106 Q 718.811 64.223 711.96 73.201 A 677.463 677.463 0 0 1 703.506 84.034 Q 695.94 93.541 686.64 104.641 Q 681.537 110.561 677.128 119.606 
    A 108.431 108.431 0 0 0 675.6 122.881 A 85.026 85.026 0 0 0 673.164 128.749 Q 670.56 135.811 670.56 140.641 A 12.22 12.22 0 0 0 670.768 143.006 Q 671.51 146.75 674.902 147.087 A 7.052 7.052 0 0 0 675.6 147.121 Q 680.87 147.121 691.162 139.708 A 101.605 101.605 0 0 0 691.2 139.681 Q 720.366 118.882 751.198 87.368 A 617.386 617.386 0 0 0 751.44 87.121 
    A 577.872 577.872 0 0 0 767.204 70.471 Q 783.075 52.981 792.48 39.121 A 51.185 51.185 0 0 1 797.634 32.761 Q 800.576 29.714 803.619 27.857 A 18.483 18.483 0 0 1 813.36 24.961 Q 815.969 24.961 816.805 26.069 A 2.083 2.083 0 0 1 817.2 27.361 Q 817.2 27.841 817.08 28.321 A 4.582 4.582 0 0 1 816.806 29.101 A 5.22 5.22 0 0 1 816.72 29.281 Q 804 51.601 783.48 86.641 A 7901.477 7901.477 0 0 1 766.959 114.709 Q 752.25 139.591 734.4 169.441 Q 726.48 182.401 715.92 193.921 A 112.544 112.544 0 0 1 702.604 206.356 
    A 93.486 93.486 0 0 1 693.6 212.641 Q 681.84 219.841 669.84 219.841 A 26.918 26.918 0 0 1 660.963 218.287 A 33.221 33.221 0 0 1 657.72 216.961 Q 651.6 214.081 647.4 209.281 A 18.379 18.379 0 0 1 644.642 205.182 A 14.145 14.145 0 0 1 643.2 198.961 A 7.256 7.256 0 0 1 643.45 196.966 Q 644.091 194.73 646.374 194.135 A 7.425 7.425 0 0 1 648.24 193.921 Q 649.2 193.921 650.04 194.041 
    A 16.16 16.16 0 0 1 651.023 194.214 A 20.343 20.343 0 0 1 651.84 194.401 A 110.635 110.635 0 0 0 653.479 199.778 Q 655.204 204.931 657.012 208.232 A 25.48 25.48 0 0 0 657.84 209.641 Q 660.88 214.434 670.072 214.557 A 36.501 36.501 0 0 0 670.56 214.561 A 26.518 26.518 0 0 0 681.984 211.751 Q 691.986 206.99 703.08 194.161 A 213.066 213.066 0 0 0 714.562 179.512 Q 725.848 163.87 738.768 141.442 A 723.582 723.582 0 0 0 743.04 133.921 Z M 371.52 145.681 L 362.4 138.721 
    A 1.619 1.619 0 0 1 361.921 137.567 A 2.126 2.126 0 0 1 361.92 137.521 A 3.043 3.043 0 0 1 362.191 136.324 Q 362.726 135.075 364.32 133.561 A 13.09 13.09 0 0 1 365.561 132.51 Q 366.992 131.456 368.232 131.306 A 3.384 3.384 0 0 1 368.64 131.281 Q 369.36 131.281 379.68 139.441 Q 389.28 128.641 399.6 118.081 Q 404.88 112.471 409.309 107.995 A 350.888 350.888 0 0 1 413.16 104.161 A 140.797 140.797 0 0 1 417.018 100.513 Q 418.772 98.92 420.357 97.612 
    A 59.405 59.405 0 0 1 423.36 95.281 Q 404.4 89.521 395.28 89.521 A 21.519 21.519 0 0 0 391.341 89.86 Q 389.082 90.281 387.27 91.223 
    A 12.016 12.016 0 0 0 385.92 92.041 A 9.699 9.699 0 0 0 383.889 93.906 A 6.991 6.991 0 0 0 382.32 98.401 A 5.985 5.985 0 0 0 383.383 101.759 Q 384.21 103.006 385.68 104.161 A 11.597 11.597 0 0 1 386.422 104.762 Q 387.6 105.809 387.6 106.561 A 2.525 2.525 0 0 1 387.549 107.095 Q 387.352 108.001 386.4 108.001 A 3.512 3.512 0 0 1 384.928 107.626 Q 382.861 106.66 379.92 103.201 A 19.671 19.671 0 0 1 377.506 99.414 A 13.902 13.902 0 0 1 376.08 93.361 
    A 10.828 10.828 0 0 1 376.559 90.052 A 8.381 8.381 0 0 1 379.8 85.681 A 19.559 19.559 0 0 1 384.555 83.242 A 27.023 27.023 0 0 1 389.04 82.081 A 63.314 63.314 0 0 1 399.179 81.124 A 58.328 58.328 0 0 1 399.84 81.121 A 47.851 47.851 0 0 1 408.143 81.886 Q 411.968 82.561 416.089 83.829 A 78.273 78.273 0 0 1 416.64 84.001 Q 425.76 86.881 434.64 89.761 Q 438 87.841 441.84 87.841 A 25.319 25.319 0 0 1 445.266 88.052 Q 449.054 88.572 450.686 90.376 A 4.969 4.969 0 0 1 451.92 93.841 Q 451.92 95.744 450.034 97.42 A 10.901 10.901 0 0 1 448.92 98.281 A 11.587 11.587 0 0 1 444.414 100.08 
    A 15.757 15.757 0 0 1 441.6 100.321 Q 437.04 100.321 433.44 98.641 A 146.947 146.947 0 0 0 416.355 111.128 Q 407.941 118.18 399.054 127.301 A 346.973 346.973 0 0 0 384.48 143.281 L 393.12 150.001 Q 398.64 154.081 405.24 155.401 Q 411.84 156.721 418.32 156.721 A 48.73 48.73 0 0 0 426.385 156.087 
    Q 431.127 155.291 435.056 153.495 A 29.417 29.417 0 0 0 436.32 152.881 A 15.933 15.933 0 0 0 440.283 150.066 A 11.765 11.765 0 0 0 443.76 141.361 Q 443.76 138.717 443.071 136.763 
    A 9.267 9.267 0 0 0 442.8 136.081 Q 442.32 134.641 442.32 134.401 A 1.63 1.63 0 0 1 442.518 133.574 Q 442.897 132.916 444 132.765 A 5.338 5.338 0 0 1 444.72 132.721 Q 445.92 132.721 446.4 133.921 A 24.177 24.177 0 0 1 447.746 137.737 A 17.495 17.495 0 0 1 448.256 140.685 A 19.672 19.672 0 0 1 448.71 139.216 Q 451.714 130.001 462.848 114.744 A 257.74 257.74 0 0 1 465.36 111.361 A 194.473 194.473 0 0 1 471.708 103.286 Q 481.851 91.12 488.468 88.39 A 9.329 9.329 0 0 1 492 87.601 A 14.734 14.734 0 0 1 494.692 87.824 Q 499.44 88.711 499.44 93.121 A 3.324 3.324 0 0 1 498.809 94.473 Q 495.769 99.199 478.08 118.081 A 277.878 277.878 0 0 0 470.903 126.026 
    Q 460.491 138.048 457.854 144.681 A 10.806 10.806 0 0 0 456.96 148.561 Q 456.96 151.299 460.103 151.634 A 8.861 8.861 0 0 0 461.04 151.681 A 12.542 12.542 0 0 0 465.25 150.732 Q 474.325 147.333 494.4 131.761 Q 504.96 123.361 513.12 116.401 A 317.738 317.738 0 0 0 518.869 111.383 Q 521.67 108.875 524.068 106.587 A 163.092 163.092 0 0 0 526.8 103.921 Q 528.72 101.521 530.64 99.241 Q 532.56 96.961 534.24 94.561 Q 536.946 91.427 539.653 90.153 A 8.64 8.64 0 0 1 543.36 89.281 A 11.681 11.681 0 0 1 545.725 89.498 Q 549.84 90.353 549.84 94.561 Q 549.84 95.521 539.76 110.401 Q 535.718 116.648 532.941 120.715 A 206.398 206.398 0 0 1 531.36 123.001 A 158.131 158.131 0 0 0 530.283 124.552 Q 528.159 127.653 527.763 128.633 A 2.7 2.7 0 0 0 527.76 128.641 
    Q 522.064 139.666 511.725 158.428 A 3332.669 3332.669 0 0 1 504.96 170.641 Q 481.68 208.081 458.4 208.081 
    A 16.788 16.788 0 0 1 446.997 203.637 A 23.647 23.647 0 0 1 444.96 201.601 A 23.645 23.645 0 0 1 440.912 195.067 Q 439.311 191.102 439.44 186.721 Q 442.32 190.321 447.12 195.121 A 28.689 28.689 0 0 0 450.9 198.22 Q 455.188 201.121 459.36 201.121 Q 471.083 201.121 484.392 185.083 A 112.74 112.74 0 0 0 488.88 179.281 A 180.514 180.514 0 0 0 494.446 171.04 Q 497.317 166.54 500.28 161.401 A 190.799 190.799 0 0 0 507.353 147.851 A 235.575 235.575 0 0 0 511.44 138.721 L 520.56 116.641 L 485.28 144.241 A 111.137 111.137 0 0 1 477.554 149.787 Q 466.51 156.961 459.12 156.961 A 11.705 11.705 0 0 1 455.187 156.327 A 9.981 9.981 0 0 1 450.72 153.121 A 15.603 15.603 0 0 1 448.759 150.084 A 11.113 11.113 0 0 1 447.721 146.782 A 17.782 17.782 0 0 1 442.128 155.695 
    A 26.86 26.86 0 0 1 439.32 157.921 Q 430.32 164.161 415.68 164.161 
    Q 408.72 164.161 401.88 162.721 A 44.993 44.993 0 0 1 393.145 159.967 A 39.183 39.183 0 0 1 389.52 158.161 Q 388.234 157.426 386.033 155.987 A 189.57 189.57 0 0 1 384.6 155.041 A 100.214 100.214 0 0 1 382.399 153.527 Q 379.785 151.681 376.32 149.041 Q 372.48 151.681 369.12 153.721 A 15.8 15.8 0 0 1 366.436 155.039 Q 364.738 155.67 363.105 155.749 A 9.636 9.636 0 0 1 362.64 155.761 A 7.252 7.252 0 0 1 360.372 155.436 Q 358.035 154.667 357.377 152.072 A 9.44 9.44 0 0 1 357.12 149.761 A 7.686 7.686 0 0 1 357.249 148.432 Q 357.493 147.054 358.196 145.217 A 31.432 31.432 0 0 1 358.44 144.601 Q 359.339 142.394 360.405 141.69 A 1.854 1.854 0 0 1 361.44 141.361 Q 362.64 141.361 362.64 143.041 
    A 9.897 9.897 0 0 1 362.617 143.744 Q 362.591 144.099 362.538 144.399 A 3.938 3.938 0 0 1 362.4 144.961 A 1.24 1.24 0 0 1 362.386 145.14 Q 362.372 145.232 362.346 145.337 A 3.099 3.099 0 0 1 362.28 145.561 A 3.13 3.13 0 0 0 362.217 145.774 Q 362.16 145.996 362.16 146.161 A 3.455 3.455 0 0 0 362.279 147.11 Q 362.584 148.175 363.671 148.458 A 3.536 3.536 0 0 0 364.56 148.561 A 8.177 8.177 0 0 0 367.214 148.085 Q 369.24 147.391 371.52 145.681 Z M 39.502 172.956 A 80.591 80.591 0 0 0 55.68 174.481 Q 67.68 174.481 80.88 171.241 Q 94.08 168.001 106.92 162.241 Q 119.76 156.481 131.04 149.041 
    Q 142.32 141.601 150.48 132.961 A 13.11 13.11 0 0 0 150.806 132.623 Q 151.657 131.708 152.195 130.765 
    A 6.63 6.63 0 0 0 153.12 127.441 A 4.986 4.986 0 0 0 153.078 126.768 Q 152.875 125.281 151.68 125.281 
    A 2.208 2.208 0 0 0 151.109 125.363 Q 149.197 125.877 145.68 129.601 Q 130.56 146.401 109.2 156.361 Q 87.84 166.321 65.04 166.321 A 78.958 78.958 0 0 1 53.9 165.563 A 60.428 60.428 0 0 1 37.8 161.041 A 50.305 50.305 0 0 1 36.335 160.361 A 41.872 41.872 0 0 1 19.2 145.561 Q 12.48 135.361 12.48 120.721 A 67.668 67.668 0 0 1 15.159 102.223 Q 20.658 82.82 37.44 61.681 Q 49.92 45.841 65.76 33.601 Q 81.6 21.361 99.72 14.401 Q 117.84 7.441 136.32 7.441 Q 143.715 7.441 149.927 8.919 A 39.584 39.584 0 0 1 163.2 14.641 Q 173.76 21.841 173.76 37.441 Q 173.76 47.041 168.84 55.801 A 54.59 54.59 0 0 1 167.053 58.759 A 58.795 58.795 0 0 1 155.76 71.521 
    Q 147.6 78.481 137.88 82.561 A 57.22 57.22 0 0 1 134.164 83.973 A 48.204 48.204 0 0 1 118.56 86.641 A 36.704 36.704 0 0 1 111.56 86.003 A 26.456 26.456 0 0 1 100.56 81.241 A 22.849 22.849 0 0 1 98.391 79.401 A 15.441 15.441 0 0 1 93.36 67.921 A 20.058 20.058 0 0 1 95.849 58.464 Q 97.607 55.138 100.608 51.835 A 54.291 54.291 0 0 1 106.8 46.081 Q 110.64 44.641 110.64 42.241 Q 110.64 41.476 109.878 41.32 A 2.202 2.202 0 0 0 109.44 41.281 A 3.428 3.428 0 0 0 108.588 41.399 Q 107.572 41.661 106.235 42.502 A 20.189 20.189 0 0 0 104.88 43.441 Q 88.32 55.921 88.32 68.881 A 17.918 17.918 0 0 0 92.866 80.975 A 26.427 26.427 0 0 0 98.16 85.561 A 37.67 37.67 0 0 0 111.159 91.008 A 52.086 52.086 0 0 0 122.4 92.161 Q 133.44 92.161 144.24 88.081 
    Q 155.04 84.001 164.04 76.801 Q 173.04 69.601 178.44 59.881 Q 183.84 50.161 183.84 38.881 Q 183.84 34.011 182.89 29.845 A 27.769 27.769 0 0 0 177.36 18.241 Q 170.88 10.321 159.84 6.601 A 68.037 68.037 0 0 0 148.91 3.931 A 86.757 86.757 0 0 0 135.12 2.881 A 110.972 110.972 0 0 0 124.786 3.367 A 126.28 126.28 0 0 0 99.72 8.401 Q 81.6 13.921 65.16 23.761 Q 48.72 33.601 36 47.041 Q 20.4 63.601 10.2 83.281 A 101.036 101.036 0 0 0 8.377 86.979 A 85.616 85.616 0 0 0 0 123.601 A 64.912 64.912 0 0 0 0.295 129.863 A 47.516 47.516 0 0 0 14.52 160.321 Q 24.276 169.834 39.502 172.956 Z M 813.12 162.001 Q 805.44 162.001 799.2 157.081 A 15.624 15.624 0 0 1 793.035 145.747 A 20.044 20.044 0 0 1 792.96 144.001 A 34.649 34.649 0 0 1 795.657 131.133 Q 800.464 119.112 813.84 105.121 
    Q 835.2 83.041 852 83.041 A 16.589 16.589 0 0 1 856.001 83.498 A 11.932 11.932 0 0 1 861 86.041 A 10.474 10.474 0 0 1 863.317 88.807 A 9.088 9.088 0 0 1 864.48 93.361 Q 864.48 105.375 847.412 117.005 A 96.728 96.728 0 0 1 843.12 119.761 Q 825.699 130.346 813.343 131.205 A 30.899 30.899 0 0 1 811.2 131.281 Q 809.28 131.281 807.84 130.801 Q 804.24 137.281 804.24 144.481 A 19.14 19.14 0 0 0 804.798 149.324 Q 806.418 155.502 812.749 156.682 A 17.766 17.766 0 0 0 816 156.961 A 24.519 24.519 0 0 0 824.069 155.429 Q 833.851 151.998 846.96 140.881 A 163.679 163.679 0 0 0 863.573 125.618 A 138.218 138.218 0 0 0 867.74 121.003 A 180.367 180.367 0 0 1 868.02 120.391 A 239.191 239.191 0 0 1 872.64 110.881 Q 877.68 101.041 882.72 91.441 
    A 32.138 32.138 0 0 1 880.304 91.907 Q 878.625 92.161 877.2 92.161 A 13.77 13.77 0 0 1 874.572 91.933 Q 870.352 91.108 870.027 87.296 A 7.731 7.731 0 0 1 870 86.641 A 5.441 5.441 0 0 1 870.299 84.795 A 4.598 4.598 0 0 1 872.04 82.561 A 13.161 13.161 0 0 1 873.385 81.72 Q 874.087 81.342 874.741 81.125 A 5.875 5.875 0 0 1 875.76 80.881 L 876.36 80.881 A 3.939 3.939 0 0 0 876.77 80.857 Q 877.228 80.809 877.833 80.662 A 13.076 13.076 0 0 0 877.92 80.641 L 891.84 80.641 Q 896.16 75.121 900.72 68.881 A 80.648 80.648 0 0 1 903.613 65.425 Q 907.944 60.559 910.833 59.362 
    A 6.573 6.573 0 0 1 911.04 59.281 L 911.76 59.281 Q 913.11 59.281 915.389 60.365 A 26.421 26.421 0 0 1 916.56 60.961 A 15.94 15.94 0 0 1 918.056 61.906 Q 920.4 63.593 920.4 65.281 A 4.317 4.317 0 0 1 919.925 66.954 Q 918.197 70.734 910.186 79.881 A 268.643 268.643 0 0 1 908.88 81.361 Q 910.534 81.544 913.313 81.587 A 116.924 116.924 0 0 0 915.12 81.601 L 925.2 81.601 L 933.48 81.601 Q 938.88 81.601 944.76 81.481 Q 950.64 81.361 954.96 81.241 Q 959.037 81.127 959.694 81.121 A 6.996 6.996 0 0 1 959.76 81.121 A 1.936 1.936 0 0 1 960.041 81.237 Q 960.181 81.31 960.277 81.399 A 0.583 0.583 0 0 1 960.48 81.841 Q 960.48 83.989 932.458 87.563 A 754.322 754.322 0 0 1 932.16 87.601 Q 916.08 89.761 907.56 90.961 Q 899.459 92.102 898.41 92.375 A 1.434 1.434 0 0 0 898.32 92.401 A 25.494 25.494 0 0 0 896.316 94.343 Q 894.244 96.56 891.736 100.011 A 111.257 111.257 0 0 0 890.16 102.241 A 171.73 171.73 0 0 0 884.76 110.602 A 216.944 216.944 0 0 0 880.56 117.841 A 179.652 179.652 0 0 0 875.654 127.295 A 141.827 141.827 0 0 0 872.52 134.281 Q 869.875 140.648 869.389 144.696 A 14.353 14.353 0 0 0 869.28 146.401 A 8.348 8.348 0 0 0 870.093 150.108 A 8.427 8.427 0 0 0 872.16 152.761 A 8.511 8.511 0 0 0 874.826 154.296 Q 877.47 155.281 881.52 155.281 A 24.45 24.45 0 0 0 885.151 154.988 Q 886.999 154.709 889.079 154.166 A 53.162 53.162 0 0 0 891.84 153.361 A 96.66 96.66 0 0 0 902.902 149.078 A 89.255 89.255 0 0 0 903.24 148.921 Q 908.64 146.401 911.04 144.961 A 90.671 90.671 0 0 0 916.54 141.272 Q 919.364 139.235 922.416 136.762 A 169.476 169.476 0 0 0 924.84 134.761 A 150.265 150.265 0 0 0 935.178 125.165 A 177.725 177.725 0 0 0 936.987 123.299 A 97.76 97.76 0 0 1 937.017 123.236 A 110.635 110.635 0 0 1 938.28 120.721 Q 941.76 114.001 945.12 108.721 Q 956.59 90.082 964.564 87.175 A 8.371 8.371 0 0 1 967.2 86.641 
    A 6.689 6.689 0 0 1 968.837 86.863 Q 970.353 87.247 972.221 88.293 A 23.327 23.327 0 0 1 972.48 88.441 A 10.701 10.701 0 0 1 973.808 89.334 Q 975.337 90.554 975.561 91.924 A 2.942 2.942 0 0 1 975.6 92.401 L 957.36 115.921 A 232.096 232.096 0 0 0 951.243 124.178 Q 941.406 138.142 939.712 146.025 A 14.44 14.44 0 0 0 939.36 149.041 Q 939.36 156.721 945.36 156.721 A 12.145 12.145 0 0 0 947.983 156.404 Q 951.113 155.708 955.32 153.481 Q 961.44 150.241 968.16 145.201 Q 974.88 140.161 981 134.401 Q 987.12 128.641 990.96 123.841 A 36.158 36.158 0 0 1 992.263 122.237 Q 993.569 120.727 994.669 119.875 A 8.539 8.539 0 0 1 995.16 119.521 A 27.653 27.653 0 0 1 995.789 119.113 Q 997.028 118.334 997.426 118.321 A 0.407 0.407 0 0 1 997.44 118.321 A 0.879 0.879 0 0 1 997.944 118.459 Q 998.4 118.768 998.4 119.761 A 2.002 2.002 0 0 1 998.268 120.4 Q 997.796 121.748 995.64 124.561 A 59.771 59.771 0 0 1 993.338 127.366 Q 992.228 128.645 990.913 130.043 A 131.556 131.556 0 0 1 988.08 132.961 Q 982.32 138.721 975.36 145.441 Q 968.4 152.161 960.24 156.841 A 37.003 37.003 0 0 1 960.112 156.913 A 35.083 35.083 0 0 1 942.48 161.521 A 13.138 13.138 0 0 1 937.995 160.781 A 11.514 11.514 0 0 1 933.72 158.041 Q 930.593 154.913 930.276 147.425 A 41.277 41.277 0 0 1 930.24 145.681 Q 930.24 140.641 932.52 134.041 A 97.76 97.76 0 0 1 932.639 133.702 A 125.369 125.369 0 0 1 928.68 137.401 A 105.979 105.979 0 0 1 914.167 148.293 A 117.249 117.249 0 0 1 912.96 149.041 A 93.552 93.552 0 0 1 903.625 154.065 A 68.485 68.485 0 0 1 894.12 157.681 A 69.746 69.746 0 0 1 885.711 159.619 A 51.494 51.494 0 0 1 877.44 160.321 A 25.636 25.636 0 0 1 872.543 159.881 Q 869.715 159.33 867.488 158.09 A 13.9 13.9 0 0 1 865.32 156.601 Q 861.043 153.017 860.886 143.976 A 40.137 40.137 0 0 1 860.88 143.281 A 23.99 23.99 0 0 1 861.273 139.157 Q 861.639 137.07 862.346 134.678 A 63.847 63.847 0 0 1 862.921 132.857 A 141.803 141.803 0 0 1 860.88 134.881 Q 853.2 142.321 844.32 148.561 A 110.704 110.704 0 0 1 834.644 154.906 Q 824.467 160.785 816.377 161.792 A 26.351 26.351 0 0 1 813.12 162.001 Z M 201.84 90.001 L 184.08 113.041 A 341.465 341.465 0 0 1 179.539 118.847 Q 171.192 129.264 167.96 131.119 A 2.489 2.489 0 0 1 166.8 131.521 A 2.202 2.202 0 0 1 166.362 131.481 Q 165.6 131.326 165.6 130.561 A 3.241 3.241 0 0 1 165.717 129.74 Q 165.918 128.979 166.461 128.012 A 14.173 14.173 0 0 1 166.8 127.441 A 8.774 8.774 0 0 1 167.319 126.555 Q 167.934 125.62 168.98 124.398 A 42.452 42.452 0 0 1 169.68 123.601 Q 178.8 113.041 186.48 102.721 A 158.88 158.88 0 0 0 194.285 91.262 A 126.517 126.517 0 0 0 199.2 82.561 A 88.218 88.218 0 0 1 201.371 75.465 Q 206.295 61.681 213.12 61.681 A 8.762 8.762 0 0 1 215.237 61.913 Q 218.64 62.763 218.64 66.721 A 9.622 9.622 0 0 1 218.083 69.767 Q 217.159 72.514 214.705 75.996 A 53.089 53.089 0 0 1 212.64 78.721 Q 206.88 86.161 206.88 86.401 A 4.708 4.708 0 0 0 207.553 88.977 Q 208.74 90.846 212.02 91.297 A 16.946 16.946 0 0 0 214.32 91.441 A 14.32 14.32 0 0 0 218.284 90.843 Q 219.95 90.364 221.735 89.498 A 30.211 30.211 0 0 0 223.92 88.321 L 230.16 84.481 A 1.79 1.79 0 0 1 230.507 84.354 Q 230.879 84.257 231.419 84.243 A 7.138 7.138 0 0 1 231.6 84.241 A 6.358 6.358 0 0 1 235.947 85.949 A 8.891 8.891 0 0 1 236.64 86.641 Q 238.8 89.041 238.08 90.961 L 221.52 111.841 Q 209.482 127.264 206.879 137.97 A 23.543 23.543 0 0 0 206.16 143.521 A 15.97 15.97 0 0 0 206.665 147.729 
    Q 207.984 152.544 212.741 153.842 A 15.141 15.141 0 0 0 216.72 154.321 Q 223.92 154.321 232.2 150.001 Q 240.48 145.681 248.28 139.321 Q 256.08 132.961 261.36 126.961 L 267.12 120.241 L 268.32 119.041 A 4.794 4.794 0 0 1 268.644 118.743 A 2.819 2.819 0 0 1 268.713 118.687 A 103.411 103.411 0 0 1 276.341 109.175 A 153.238 153.238 0 0 1 282.72 102.481 Q 304.422 80.779 322.456 77.59 A 35.013 35.013 0 0 1 328.56 77.041 Q 334.08 77.041 337.2 79.681 A 8.873 8.873 0 0 1 338.748 81.804 Q 339.326 82.891 339.72 84.241 A 30.162 30.162 0 0 0 339.998 85.146 Q 340.53 86.775 340.893 87.06 A 0.242 0.242 0 0 0 341.04 87.121 A 4.335 4.335 0 0 0 341.887 87.042 A 3.289 3.289 0 0 0 342.72 86.761 A 3.353 3.353 0 0 1 343.7 86.453 A 4.462 4.462 0 0 1 344.4 86.401 A 6.87 6.87 0 0 1 349.3 88.424 A 9.02 9.02 0 0 1 349.44 88.561 Q 351.6 90.721 351.84 92.401 A 0.045 0.045 0 0 1 351.844 92.42 Q 351.844 93.128 340.22 110.566 A 2761.746 2761.746 0 0 1 336.48 116.161 A 213.447 213.447 0 0 0 331.627 123.557 Q 321.127 140.361 322.32 147.121 A 12.09 12.09 0 0 0 322.983 149.271 Q 324.413 152.641 327.6 152.641 A 14.584 14.584 0 0 0 334.315 150.522 Q 347.143 143.529 371.511 113.455 
    A 556.777 556.777 0 0 0 373.2 111.361 Q 373.851 110.492 374.503 110.409 A 1.088 1.088 0 0 1 374.64 110.401 Q 375.84 110.401 375.84 112.081 Q 375.84 114.001 373.68 116.881 Q 348.243 151.13 332.668 156.797 A 16.978 16.978 0 0 1 326.88 157.921 A 11.525 11.525 0 0 1 322.808 157.203 A 11.051 11.051 0 0 1 322.8 157.201 A 17.819 17.819 0 0 1 317.007 153.696 Q 313.357 150.301 312.502 144.874 A 22.564 22.564 0 0 1 312.24 141.361 Q 312.24 137.281 313.2 133.201 L 298.32 147.601 A 84.263 84.263 0 0 1 294.249 151.426 Q 292.081 153.323 290.069 154.767 A 34.677 34.677 0 0 1 286.2 157.201 A 37.848 37.848 0 0 1 283.324 158.593 Q 280.434 159.832 278.276 160.039 A 8.763 8.763 0 0 1 277.44 160.081 Q 271.68 160.081 265.92 156.001 Q 261.188 152.649 259.858 148.325 A 11.658 11.658 0 0 1 259.44 146.401 A 24.899 24.899 0 0 1 259.235 143.191 A 33.049 33.049 0 0 1 260.866 133.512 A 89.944 89.944 0 0 1 255.21 139.231 Q 251.847 142.356 247.863 145.511 A 141.94 141.94 0 0 1 247.8 145.561 Q 239.76 151.921 231.24 156.001 A 49.163 49.163 0 0 1 225.069 158.487 Q 221.737 159.558 218.68 159.909 A 25.569 25.569 0 0 1 215.76 160.081 Q 209.994 160.081 206.25 158.395 A 11.201 11.201 0 0 1 201.6 154.681 Q 198.383 150.157 197.861 143.024 A 39.234 39.234 0 0 1 197.76 140.161 Q 197.76 132.837 201.054 123.486 A 95.657 95.657 0 0 1 204 116.161 Q 206.4 110.641 209.04 106.201 A 94.629 94.629 0 0 1 213.666 99.135 A 84.866 84.866 0 0 1 214.56 97.921 A 9.473 9.473 0 0 1 213.874 98.067 Q 213.33 98.161 212.88 98.161 L 211.44 98.161 A 8.053 8.053 0 0 1 205.936 95.925 Q 204.67 94.788 203.541 93.073 A 24.729 24.729 0 0 1 201.84 90.001 Z M 313.2 124.321 L 338.64 89.281 A 6.307 6.307 0 0 0 334.116 86.07 A 9.387 9.387 0 0 0 332.4 85.921 A 26.133 26.133 0 0 0 323.074 87.886 Q 310.577 92.707 292.891 109.355 A 235.064 235.064 0 0 0 292.8 109.441 Q 266.88 133.441 269.52 149.041 A 11.642 11.642 0 0 0 270.236 151.355 Q 271.753 154.801 275.28 154.801 A 18.933 18.933 0 0 0 283.646 152.522 Q 294.583 147.056 309.855 128.48 A 253.125 253.125 0 0 0 313.2 124.321 Z M 833.967 119.459 A 108.467 108.467 0 0 0 838.32 116.881 A 99.192 99.192 0 0 0 846.61 110.373 A 110.542 110.542 0 0 0 847.8 109.321 Q 852.48 105.121 855.48 100.801 A 23.156 23.156 0 0 0 857.03 98.257 Q 857.71 96.945 858.071 95.734 A 9.143 9.143 0 0 0 858.48 93.121 Q 858.48 90.144 853.894 90.007 A 15.187 15.187 0 0 0 853.44 90.001 A 13.971 13.971 0 0 0 848.934 90.855 Q 842.595 93.038 833.28 100.801 Q 827.04 106.081 821.28 112.321 Q 815.52 118.561 811.44 125.521 Q 812.88 126.001 814.56 126.001 Q 822.284 126.001 833.967 119.459 Z M 986.88 76.321 Q 982.8 76.321 979.8 73.681 A 10.143 10.143 0 0 1 978.046 71.713 A 7.122 7.122 0 0 1 976.8 67.681 Q 976.8 61.894 983.562 61.09 A 20.027 20.027 0 0 1 985.92 60.961 A 10.702 10.702 0 0 1 990.173 61.874 A 14.819 14.819 0 0 1 992.64 63.241 Q 996 65.521 996 68.881 Q 996 71.474 993.471 73.58 A 11.816 11.816 0 0 1 992.88 74.041 Q 989.76 76.321 986.88 76.321 Z" stroke="#E1F7D5" stroke-width="1" fill="#C9C9FF"/>
</svg>